<?xml version="1.0" encoding="utf-8"?>
<!-- Generator: Adobe Illustrator 15.1.0, SVG Export Plug-In . SVG Version: 6.00 Build 0)  -->
<!DOCTYPE svg PUBLIC "-//W3C//DTD SVG 1.1//EN" "http://www.w3.org/Graphics/SVG/1.1/DTD/svg11.dtd">
<svg version="1.1" id="Layer_1" xmlns="http://www.w3.org/2000/svg" xmlns:xlink="http://www.w3.org/1999/xlink" x="0px" y="0px"
	 width="99px" height="33.5px" viewBox="0 0 99 33.5" enable-background="new 0 0 99 33.5" xml:space="preserve">
<g>
	<g>
		<path fill-rule="evenodd" clip-rule="evenodd" fill="#eeeeee" d="M94.917,5.356c-2.364-3.131-7.289-4.613-11.519-2.046
			c0,0-3.893,1.601-4.446,5.768c-0.417,3.156,2.505,5.62,4.739,5.139c0.853-0.183,2.276-0.839,2.389-1.979
			c0,0-4.095,2.65-5.776-1.003c-1.913-4.146,3.499-7.514,6.698-7.514c3.199,0,6.166,2.346,6.268,6.141
			c0.102,3.805-2.146,5.814-5.13,7.029c-4.579,1.863-10.747,2.446-15.021,0.066c-4.27-2.377-5.036-2.963-8.265-5.275
			c-1.815-1.303-5.087-3.465-7.352-2.869c0,0-4.585,0.22-7.058,3.296c-2.472-3.076-7.055-3.296-7.055-3.296
			c-2.263-0.596-5.537,1.566-7.351,2.869c-3.229,2.313-3.998,2.898-8.27,5.275c-4.273,2.38-10.438,1.797-15.02-0.066
			c-2.983-1.215-5.23-3.225-5.132-7.029c0.104-3.795,3.069-6.141,6.268-6.141s8.613,3.367,6.704,7.514
			c-1.685,3.653-5.776,1.003-5.776,1.003c0.112,1.14,1.537,1.796,2.389,1.979c2.232,0.481,5.152-1.982,4.735-5.139
			c-0.551-4.167-4.444-5.768-4.444-5.768C13.264,0.743,8.338,2.226,5.974,5.356c-1.009,1.344-5.171,8.85,2.88,17.329
			c8.047,8.48,20.857,8.859,24.53,8.859c2.217,0,12.764,0.659,17.062-8.47c4.297,9.129,14.844,8.47,17.059,8.47
			c3.679,0,16.487-0.379,24.536-8.859C100.092,14.206,95.93,6.7,94.917,5.356z"/>
	</g>
</g>
</svg>
